<svg width="59" height="64" viewBox="0 0 59 64" fill="none" xmlns="http://www.w3.org/2000/svg">
<path id="Combined Shape" fill-rule="evenodd" clip-rule="evenodd" d="M58.0978 2.0603L58.0978 2.06029C58.0579 2.02823 58.0163 1.99481 57.9726 1.95908C58.184 1.56381 58.181 1.45504 57.8818 1.23879L57.8625 1.22487C57.7185 1.12045 57.5656 1.00951 57.3528 1.02772C57.2496 1.03662 57.1449 1.02666 57.0401 1.01668C56.9402 1.00716 56.8401 0.997635 56.7411 1.00443C56.3328 1.03278 55.9371 1.11218 55.6248 1.41287C55.5245 1.50953 55.4194 1.60122 55.3106 1.6962L55.3106 1.69621C55.2603 1.74011 55.2092 1.78471 55.1573 1.83082L55.1481 1.99806C55.147 2.01833 55.1461 2.03863 55.1452 2.05893L55.1452 2.05896L55.1452 2.05896L55.1452 2.05897L55.1452 2.05897L55.1452 2.05897L55.1452 2.05898L55.1452 2.05898L55.1452 2.05899L55.1452 2.05899L55.1452 2.059L55.1452 2.059L55.1452 2.05901L55.1452 2.05901L55.1452 2.05902L55.1452 2.05902L55.1452 2.05903L55.1452 2.05903L55.1452 2.05903L55.1452 2.05904L55.1452 2.05904L55.1452 2.05905L55.1452 2.05905C55.1433 2.09963 55.1415 2.14023 55.1381 2.18069C55.1115 2.4962 55.1106 2.49646 54.7265 2.60155L54.7175 2.60399C54.6816 2.6138 54.6453 2.63353 54.6098 2.65289C54.556 2.6822 54.5038 2.71065 54.4563 2.70259C54.1748 2.65456 54.0226 2.81002 53.8769 3.00288L54.568 3.25604L54.5452 3.34468L53.8651 3.3072C53.7455 3.72298 54.0215 3.7797 54.279 3.83261L54.3266 3.84251C54.1982 4.08956 54.1685 4.28441 54.4116 4.42048C54.6072 4.52993 54.5162 4.60904 54.4234 4.68971C54.4106 4.7008 54.3978 4.71191 54.3857 4.72315C54.7482 4.99094 55.1922 5.12692 55.6433 5.10833C55.9937 5.10775 56.3442 5.13119 56.6946 5.15463C56.8751 5.1667 57.0555 5.17876 57.236 5.18756C57.3414 5.18786 57.4467 5.18285 57.5516 5.17255L57.5522 5.10981L56.9653 5.01833C57.1196 4.9583 57.2864 4.93651 57.4511 4.95483C57.6093 4.96023 57.7676 4.95351 57.9247 4.93472C58.0678 4.90281 58.2084 4.8611 58.3457 4.80989L58.0676 4.69651C58.4584 4.50942 58.4583 4.50887 58.3858 4.1187L58.3852 4.11562C58.3754 4.06222 58.3612 3.97668 58.3876 3.95529C58.5343 3.83882 58.5077 3.75211 58.4123 3.60384C58.39 3.56917 58.4211 3.50688 58.4553 3.43825C58.4868 3.37498 58.5211 3.30633 58.5186 3.24898C58.5044 3.09883 58.4569 2.95363 58.3797 2.82374C58.3326 2.73741 58.3733 2.67165 58.413 2.6076C58.4496 2.54853 58.4852 2.49091 58.4502 2.41995C58.4279 2.36626 58.3958 2.31713 58.3555 2.27498C58.2754 2.203 58.1913 2.13541 58.0978 2.06032L58.0978 2.06031L58.0978 2.06031L58.0978 2.0603L58.0978 2.0603L58.0978 2.0603ZM51.8444 13.2721C51.8259 13.2003 51.8776 13.1104 51.979 12.9338C51.9292 12.8957 51.8899 12.8466 51.8503 12.7969C51.7658 12.6911 51.6797 12.5833 51.4856 12.5758C51.2307 12.562 50.98 12.644 50.7833 12.8054C50.7604 12.8233 50.7358 12.8409 50.7108 12.8586L50.7108 12.8586C50.6309 12.9155 50.5485 12.9741 50.5159 13.0515C50.4204 13.2781 50.242 13.4201 50.064 13.5616C49.9775 13.6305 49.8911 13.6992 49.8143 13.7776C49.5421 14.0551 49.1647 14.1339 48.8067 14.1401C47.9376 14.1554 47.2346 14.5729 46.5322 14.99L46.4754 15.0238C46.2481 15.159 46.1951 15.4063 46.1414 15.6573L46.1413 15.6574L46.1413 15.6574L46.1413 15.6575L46.1413 15.6575L46.1413 15.6576L46.1413 15.6576L46.1413 15.6577L46.1413 15.6577L46.1413 15.6577L46.1413 15.6577L46.1413 15.6577C46.1321 15.7005 46.1229 15.7433 46.1129 15.7857L46.1079 15.8066C45.9983 16.2682 45.9726 16.3767 46.3024 16.5731L46.3387 16.5946C46.5465 16.7172 46.6819 16.797 46.4439 17.0383C46.4258 17.0562 46.471 17.1417 46.506 17.2079L46.5231 17.2407C46.537 17.2676 46.5613 17.3 46.5836 17.3298L46.5836 17.3298L46.5836 17.3298C46.6135 17.3699 46.6398 17.405 46.632 17.4149C46.4386 17.6545 46.674 17.6867 46.7918 17.7028L46.7978 17.7037C46.8375 17.7091 46.8776 17.715 46.9179 17.7208L46.918 17.7208L46.918 17.7208L46.9181 17.7209L46.9182 17.7209L46.9184 17.7209C47.1849 17.7597 47.4608 17.7998 47.7116 17.7459C47.8 17.7268 47.8923 17.7163 47.9851 17.7057L47.9851 17.7057C48.2174 17.6793 48.4527 17.6526 48.637 17.4901C48.7484 17.3733 48.9103 17.318 49.0705 17.3421C49.1466 17.339 49.2202 17.3142 49.2825 17.2707C49.3265 17.247 49.3706 17.2236 49.4147 17.2001L49.4156 17.1996L49.4156 17.1996L49.4156 17.1996L49.4156 17.1996L49.4157 17.1996L49.4157 17.1996L49.4157 17.1996L49.4157 17.1996L49.4157 17.1996L49.4158 17.1995L49.4158 17.1995L49.4158 17.1995L49.4158 17.1995L49.4158 17.1995L49.4158 17.1995L49.4159 17.1995L49.4159 17.1995L49.4159 17.1995L49.4159 17.1995L49.4159 17.1994L49.416 17.1994L49.416 17.1994L49.416 17.1994L49.416 17.1994L49.416 17.1994C49.6084 17.0971 49.8011 16.9946 49.9833 16.8766C50.1056 16.7973 50.2224 16.7096 50.3392 16.6219L50.3392 16.6219L50.3392 16.6219L50.3392 16.6219L50.3392 16.6218L50.3392 16.6218L50.3392 16.6218L50.3393 16.6218L50.3393 16.6218L50.3393 16.6218L50.3393 16.6218L50.3393 16.6218L50.3393 16.6218L50.3393 16.6218L50.3393 16.6218L50.3393 16.6218L50.3393 16.6218L50.3393 16.6218L50.3393 16.6218L50.3393 16.6218L50.3393 16.6218L50.3393 16.6218L50.3393 16.6218L50.3394 16.6217L50.3395 16.6217C50.4589 16.5319 50.5784 16.4422 50.7037 16.3615C50.8807 16.2475 51.0476 16.118 51.2122 15.9903L51.3102 15.9144C51.3476 15.8857 51.3858 15.8573 51.4241 15.8288L51.4242 15.8288C51.6835 15.6361 51.951 15.4374 52.022 15.0726C52.0853 14.8145 52.1626 14.5599 52.2535 14.3101C52.1189 14.1629 52.1377 13.9956 52.1563 13.8289C52.1683 13.7219 52.1802 13.6151 52.1515 13.5142C51.9583 13.4018 51.8636 13.3467 51.8444 13.2721ZM9.33407 56.1655C9.86376 56.2785 10.3287 56.5001 10.6333 56.9342C10.7276 56.928 10.8139 56.9208 10.8947 56.9141L10.8948 56.9141C11.0562 56.9008 11.1959 56.8892 11.3349 56.8901C11.6086 56.8928 11.8903 56.8337 11.9727 56.5761C12.071 56.2688 12.2025 56.0896 12.5374 56.0936C12.5761 56.0891 12.6107 56.0673 12.631 56.0343C12.7804 55.7385 13.0291 55.5418 13.2778 55.3451C13.4076 55.2426 13.5373 55.14 13.6528 55.0234L13.6984 54.9776C13.9579 54.7174 13.9718 54.7034 13.9641 54.2119C13.9625 54.1132 13.9534 54.0145 13.9429 53.9012L13.9347 53.8115L13.9315 53.7746L13.927 53.7202C14.188 53.5187 14.4616 53.3338 14.7461 53.1667C14.827 53.1242 14.9006 53.0664 14.9744 53.0084C15.1297 52.8865 15.2855 52.7642 15.5106 52.7833C15.5453 52.6008 15.6814 52.5033 15.8049 52.4148C15.8852 52.3572 15.9603 52.3035 15.9985 52.2326L15.9088 51.6066L15.5687 51.5878C15.6349 51.5195 15.6736 51.4796 15.6912 51.4617L15.5527 51.2231C14.614 51.5954 13.713 52.0555 12.8619 52.5971C12.7354 52.6868 12.5671 52.6926 12.4346 52.6118C12.5696 52.5308 12.7001 52.4498 12.8282 52.3702L12.8284 52.3701L12.8285 52.37C13.1106 52.1948 13.381 52.0268 13.6637 51.8826C14.0255 51.6981 14.3978 51.5336 14.7707 51.3687L14.7707 51.3687L14.7708 51.3687L14.7708 51.3686L14.7709 51.3686L14.7709 51.3686L14.771 51.3686L14.771 51.3686L14.7711 51.3685L14.7711 51.3685L14.7712 51.3685L14.7712 51.3685L14.7713 51.3685L14.7713 51.3684L14.7714 51.3684L14.7714 51.3684L14.7714 51.3684L14.7715 51.3684L14.7715 51.3683L14.7716 51.3683L14.7716 51.3683L14.7717 51.3683L14.7717 51.3683L14.7718 51.3682L14.7718 51.3682C14.9331 51.2969 15.0944 51.2256 15.2552 51.1526C15.0396 50.8116 15.0385 50.812 14.7394 50.9226L14.726 50.9276C13.8544 51.2498 13.0412 51.693 12.2304 52.1349L12.0737 52.2202L11.9582 52.283L11.86 52.3362C10.9437 52.8316 10.043 53.3653 9.29683 54.12C9.15106 54.2674 9.04703 54.4341 8.94319 54.6005C8.89596 54.6762 8.84877 54.7518 8.79772 54.8256C8.74646 54.926 8.74977 55.0455 8.8065 55.1431C8.91584 55.2617 8.93586 55.388 8.95738 55.5238L8.96139 55.5489L8.96597 55.5767C8.96798 55.5886 8.9701 55.6006 8.97236 55.6126L8.97564 55.6295L8.97903 55.6468L8.98558 55.6812L8.98564 55.6815C9.02252 55.8768 9.06624 56.1084 9.33407 56.1655ZM26.852 50.9383L26.8521 50.9383L26.8521 50.9383C27.0634 50.7588 27.2647 50.5878 27.4435 50.396C28.0542 49.7413 28.8413 49.389 29.6281 49.0368C29.8133 48.9539 29.9984 48.871 30.1813 48.7842C30.5448 48.6118 30.9331 48.6492 31.317 48.6862C31.3887 48.6931 31.4602 48.7 31.5313 48.7055C31.5846 48.7095 31.6341 48.7626 31.6852 48.8174C31.7093 48.8433 31.7338 48.8695 31.7591 48.8911L31.7521 48.8942C31.5782 48.9698 31.4144 49.0411 31.1766 49.1448L32.0149 49.191C32.0395 49.2482 32.0602 49.305 32.0803 49.36C32.124 49.4798 32.1644 49.5906 32.2349 49.6768C32.3332 49.8087 32.3522 49.9831 32.2846 50.1327C32.2509 50.2408 32.1732 50.3354 32.0919 50.4343L32.0919 50.4344L32.0918 50.4344L32.0918 50.4344L32.0918 50.4345L32.0918 50.4345C32.0556 50.4785 32.0188 50.5233 31.9848 50.5706C31.55 50.4528 31.1721 50.6048 30.7766 50.7968C30.7915 50.8663 30.7819 50.9389 30.7721 51.0128C30.7546 51.1447 30.7365 51.2807 30.8565 51.4101C30.8945 51.4828 30.8936 51.5695 30.8541 51.6414C30.7809 51.7485 30.7148 51.862 30.6487 51.9756C30.4356 52.3417 30.2221 52.7085 29.7681 52.8645L29.7372 52.8749C29.6359 52.9091 29.518 52.9489 29.4715 53.0239C29.439 53.0763 29.3826 53.0841 29.3266 53.0919C29.2492 53.1026 29.1725 53.1133 29.1605 53.2417C29.1491 53.3628 29.0653 53.347 28.98 53.331C28.9373 53.323 28.8941 53.3149 28.8596 53.3239C28.7337 53.3653 28.6049 53.3977 28.4744 53.4208C28.352 53.4256 28.2295 53.4203 28.108 53.4049C27.7243 52.9331 27.2307 52.5615 26.67 52.3221L26.5483 51.2005C26.6509 51.1092 26.7526 51.0228 26.852 50.9383ZM51.1525 37.2744C51.1162 37.2144 51.0798 37.1548 51.0436 37.0956C50.917 36.8881 50.7923 36.6839 50.6786 36.474C50.6694 36.4571 50.7078 36.4145 50.7563 36.3608C50.782 36.3323 50.8105 36.3006 50.8363 36.268C50.7388 36.2149 50.6453 36.1547 50.5568 36.0878C50.4694 36.0021 50.3866 35.912 50.3085 35.8178L50.2861 35.7937C50.1241 35.6204 49.9634 35.4485 50.2352 35.2205C50.2485 35.2093 50.247 35.1821 50.2455 35.1536C50.2445 35.1359 50.2436 35.1176 50.2461 35.1023C50.258 35.0305 50.2632 34.9592 50.2684 34.8884C50.2837 34.6791 50.2988 34.4734 50.4832 34.2686C50.562 34.1811 50.6323 34.0831 50.7035 33.9839C50.8119 33.8329 50.9222 33.6793 51.0671 33.5559C51.2802 33.3499 51.522 33.1753 51.7849 33.0375C52.2146 32.8423 52.6393 32.65 53.1253 32.7546C53.263 32.806 53.3942 32.8736 53.5158 32.956L53.1827 33.3173C53.2722 33.3496 53.3663 33.3731 53.4615 33.3968C53.7127 33.4595 53.9709 33.524 54.1705 33.7573L53.8643 34.1212L54.3117 34.1459C54.3263 34.2722 54.348 34.3953 54.3694 34.5172C54.4165 34.7855 54.4626 35.0475 54.4306 35.323C54.4149 35.5357 54.3228 35.7356 54.1709 35.8862C54.1058 35.9469 54.0464 36.0127 53.9868 36.0787C53.8718 36.2061 53.7562 36.3342 53.5979 36.4265C53.4882 36.4904 53.3865 36.568 53.2838 36.6463L53.2838 36.6463C53.1835 36.7228 53.0823 36.8001 52.9717 36.8659C52.7419 37.0024 52.4918 37.0763 52.2421 37.1501L52.2421 37.1501C52.0926 37.1943 51.9432 37.2384 51.7984 37.2959C51.6714 37.3465 51.5144 37.3228 51.3589 37.2992C51.2888 37.2886 51.2191 37.2781 51.1525 37.2744ZM39.5216 10.7139L40.839 10.7865L40.8721 10.6756C40.7791 10.6431 40.6849 10.6003 40.5906 10.5575C40.3765 10.4603 40.1624 10.3631 39.9635 10.387C39.8806 10.3971 39.7958 10.4033 39.7103 10.4095L39.7103 10.4095C39.4387 10.4293 39.1591 10.4496 38.9032 10.6005C38.7523 10.6895 38.5882 10.7582 38.4243 10.8268C38.0444 10.9859 37.6651 11.1447 37.4513 11.5553C37.1487 11.6106 37.0308 11.8448 36.9175 12.0697L36.9175 12.0698L36.9175 12.0698C36.8871 12.1302 36.857 12.1899 36.8238 12.2453C36.6087 12.6039 36.3975 12.9886 36.6554 13.438C36.8269 13.737 36.9844 14.0439 37.1403 14.3477L37.1403 14.3479L37.1404 14.3479L37.1404 14.3479L37.1404 14.348L37.1404 14.348L37.1404 14.348L37.1404 14.348L37.1404 14.3481L37.1404 14.3481L37.1404 14.3481L37.1404 14.3481L37.1405 14.3481L37.1405 14.3482L37.1405 14.3482L37.1405 14.3482L37.1405 14.3482L37.1405 14.3482L37.1405 14.3483L37.1405 14.3483C37.2086 14.4809 37.2763 14.6129 37.3447 14.7433C37.539 14.7409 37.7332 14.7532 37.9256 14.7803C38.3049 14.864 38.639 14.7092 38.9114 14.5208C39.0705 14.4105 39.2625 14.3572 39.4561 14.3696C39.6479 14.2819 39.769 14.143 39.8866 14.0083C39.9904 13.8893 40.0914 13.7735 40.2358 13.699C40.3768 13.5984 40.4639 13.4394 40.4726 13.267C40.4726 13.1662 40.4888 13.0645 40.5051 12.9624C40.542 12.7313 40.5792 12.498 40.4286 12.2691C40.4055 12.2341 40.4353 12.1682 40.4674 12.0974C40.4895 12.0484 40.5128 11.9971 40.5204 11.9518C40.5264 11.9168 40.509 11.8778 40.4858 11.8262C40.4735 11.7987 40.4596 11.7677 40.4468 11.7318C40.5671 11.755 40.6903 11.7589 40.8118 11.7433C40.9112 11.7132 41.0654 11.6034 41.0597 11.5403C41.0331 11.3543 40.978 11.1734 40.8962 11.004C40.8412 10.8756 40.7269 10.8784 40.6158 10.8811C40.5828 10.8819 40.5501 10.8827 40.5194 10.88C40.4582 10.8747 40.397 10.8705 40.3357 10.8662L40.3356 10.8662C40.0621 10.8472 39.7881 10.8282 39.5216 10.7139ZM33.5451 22.2269L34.432 21.4376C34.6606 21.438 34.8888 21.4543 35.1152 21.4861C35.2027 21.5029 35.2839 21.6336 35.3305 21.7304C35.3428 21.7559 35.304 21.8059 35.2653 21.8557C35.2485 21.8774 35.2317 21.899 35.2191 21.9186C35.2441 21.933 35.2704 21.9466 35.297 21.9603C35.4528 22.0408 35.6161 22.1252 35.552 22.3783C35.5326 22.435 35.5352 22.4969 35.5591 22.5518C35.6722 22.708 35.7874 22.8772 35.7234 23.0651C35.7017 23.1289 35.6814 23.1942 35.6609 23.2598L35.6609 23.26L35.6608 23.2603L35.6607 23.2604L35.6607 23.2605L35.6606 23.2606L35.6606 23.2608L35.6606 23.2609C35.5731 23.5415 35.4837 23.8283 35.2795 24.0337C34.7807 24.535 34.2426 25.008 33.5496 25.2331C33.1377 25.3748 32.713 25.4768 32.2814 25.5375C32.0549 25.5681 31.8306 25.4671 31.7045 25.2775C31.618 25.1391 31.5284 25.0025 31.4389 24.866L31.4389 24.8659L31.4388 24.8658L31.4388 24.8657L31.4387 24.8656L31.4387 24.8656L31.4386 24.8655L31.4386 24.8654L31.4385 24.8653L31.4385 24.8653L31.4384 24.8652L31.4384 24.8651L31.4383 24.865L31.4383 24.8649L31.4382 24.8649L31.4382 24.8648L31.4381 24.8647L31.4381 24.8646L31.4381 24.8646L31.438 24.8645L31.438 24.8645L31.438 24.8644L31.438 24.8644L31.4379 24.8644L31.4379 24.8644L31.4379 24.8643L31.4379 24.8643L31.4379 24.8643L31.4379 24.8643L31.4378 24.8642L31.4378 24.8642L31.4378 24.8642L31.4378 24.8642L31.4378 24.8642L31.4378 24.8641L31.4378 24.8641L31.4377 24.8641L31.4377 24.8641L31.4377 24.864C31.2947 24.6458 31.1517 24.4276 31.0211 24.2023C30.9437 24.0698 30.9096 23.9168 30.9235 23.7643C31.0495 22.8818 31.5041 22.273 32.5263 22.0667C32.575 22.0569 32.6247 22.0413 32.6742 22.0258C32.7762 21.9939 32.8776 21.9622 32.9693 21.9806C33.1696 22.0417 33.3627 22.1243 33.5451 22.2269ZM11.6529 22.4739L11.2797 22.5259C11.4709 22.6231 11.6359 22.6642 11.834 22.5286C11.9606 22.442 12.1038 22.3866 12.2481 22.3307C12.4426 22.2553 12.6391 22.1792 12.7999 22.0251C12.8917 21.9224 12.9954 21.8306 13.1087 21.7518C13.8531 21.3567 14.2965 20.7143 14.6618 19.9977L14.6763 19.9697C14.7191 19.8875 14.7763 19.7777 14.748 19.7388C14.6571 19.6144 14.6993 19.5194 14.7441 19.4187C14.7548 19.3947 14.7656 19.3703 14.7749 19.3451C14.8015 19.272 14.8243 19.1532 14.7859 19.1088C14.6562 18.9587 14.5972 18.7827 14.5377 18.6052L14.5377 18.6052C14.5249 18.5669 14.512 18.5285 14.4984 18.4903C14.4815 18.4428 14.4427 18.3533 14.3277 18.4287C14.2712 18.4655 14.1938 18.4707 14.1056 18.4766C14.0628 18.4794 14.0174 18.4824 13.9706 18.4893C14.137 18.1989 14.2166 17.9555 13.9767 17.7719C13.894 17.7985 13.8109 17.8197 13.7297 17.8405C13.5563 17.8847 13.3915 17.9268 13.2576 18.0149C13.1286 18.0997 12.9881 18.1683 12.8474 18.237C12.5466 18.3838 12.2454 18.5309 12.0564 18.837C11.389 19.1555 11.0062 19.7356 10.6219 20.3179L10.6215 20.3186L10.621 20.3193L10.6205 20.3199C10.5886 20.3683 10.5567 20.4167 10.5245 20.465C10.3745 20.6461 10.3597 20.9029 10.4878 21.1001C10.4931 21.1092 10.4988 21.1185 10.5047 21.1281C10.5545 21.209 10.6148 21.3069 10.4876 21.432C10.4482 21.4927 10.4381 21.5676 10.46 21.6364C10.4819 21.7053 10.5334 21.7609 10.6007 21.7882C10.7795 21.847 10.9097 21.9799 11.0403 22.1133C11.2087 22.2852 11.3779 22.4578 11.6529 22.4739ZM37.8642 61.1408L38.2127 61.2103C38.2006 61.2253 38.1908 61.2399 38.1821 61.2528C38.1661 61.2765 38.1539 61.2947 38.1374 61.3004C38.0303 61.3372 37.9243 61.3769 37.8183 61.4166L37.8182 61.4166C37.5345 61.5228 37.2508 61.629 36.9474 61.6794L36.9039 61.6868C36.6574 61.7286 36.4228 61.7685 36.2452 61.5227C36.1964 61.4551 36.1074 61.4352 36.0184 61.4153C35.8741 61.3831 35.7298 61.3508 35.7565 61.1157C35.4827 60.9248 35.5185 60.6476 35.5531 60.3792L35.5558 60.3585C35.3701 60.3 35.1886 60.229 35.0126 60.146C34.8272 60.044 34.7894 59.7486 34.8967 59.44C34.9068 59.4114 34.9249 59.3836 34.9427 59.3563C34.9687 59.3164 34.994 59.2775 34.9927 59.2384L34.9923 59.2247C34.9762 58.7284 34.9762 58.7273 35.3871 58.5374C35.5886 58.4309 35.7959 58.3357 36.0081 58.2524C36.2557 58.1784 36.4587 58.0011 36.5643 57.7666C36.7414 57.4046 37.0946 57.1596 37.4977 57.1192C37.8602 57.0793 38.1807 57.2646 38.4222 57.5977L38.2338 57.7253L37.688 58.0951C37.7822 58.1003 37.8666 58.1046 37.9444 58.1085L37.9457 58.1086L37.9469 58.1087L37.9481 58.1087L37.9492 58.1088L37.9503 58.1089L37.9514 58.1089L37.9523 58.109L37.9533 58.109L37.9542 58.1091L37.9547 58.1091C38.1172 58.1174 38.2507 58.1242 38.3839 58.1343C38.5428 58.1464 38.5477 58.1606 38.6062 58.3285C38.621 58.3712 38.6393 58.4238 38.6645 58.4888C38.6946 58.5663 38.6983 58.654 38.7019 58.7417C38.7091 58.9121 38.7163 59.0826 38.9171 59.1786L38.9059 59.8401C38.8996 60.2476 38.8352 60.6057 38.37 60.7702C38.2434 60.8145 38.1351 60.9096 38.0231 61.0079C37.9716 61.053 37.9194 61.0989 37.8642 61.1408ZM38.9838 0.16746C38.6029 0.183701 38.28 0.451124 38.1954 0.820592L38.7008 1.06251C38.3653 1.14698 38.1084 1.27646 38.0453 1.65793C38.1597 1.72058 38.2708 1.78898 38.3782 1.86285C38.4056 1.88337 38.4294 1.91245 38.453 1.94126C38.5195 2.02245 38.5841 2.10144 38.7213 1.98019L38.6737 2.34343C38.8584 2.44075 39.1053 2.57099 39.3366 2.69309C39.3248 2.73081 39.3131 2.76772 39.3016 2.80406L39.3015 2.80409C39.2649 2.91936 39.2301 3.02884 39.2018 3.13992C39.1962 3.15945 39.2481 3.21617 39.2734 3.21594C39.3282 3.21519 39.4171 3.20238 39.43 3.16994C39.4429 3.13747 39.4422 3.09693 39.4414 3.05771L39.4414 3.0577C39.4406 3.01043 39.4397 2.96509 39.4629 2.93811C39.4889 2.90758 39.545 2.90239 39.6213 2.89532C39.6611 2.89164 39.7064 2.88745 39.7558 2.87891L39.5237 3.11183L39.9404 3.13496L39.9404 3.13497L39.9405 3.13497L39.9405 3.13497L39.9405 3.13497L39.9405 3.13497L39.9406 3.13497L39.9406 3.13497L39.9406 3.13498L39.9407 3.13498L39.9407 3.13498L39.9407 3.13498L39.9407 3.13498L39.9408 3.13498L39.9408 3.13499L39.9408 3.13499L39.9409 3.13499C40.4428 3.16296 40.9193 3.18951 41.3959 3.21173C41.4247 3.21303 41.4534 3.19668 41.4827 3.17998C41.5055 3.16701 41.5287 3.15382 41.5525 3.14854C41.6842 3.11938 41.811 3.06597 41.9352 3.0136C42.1803 2.91032 42.4157 2.8111 42.6605 2.90989C42.9902 2.80963 43.0216 2.57676 43.0512 2.35784C43.0706 2.21424 43.0892 2.07664 43.1906 1.98639C43.1541 1.90643 43.1096 1.82885 43.0663 1.75324C42.9731 1.59052 42.885 1.43687 42.8924 1.28795C42.9004 1.1247 42.8225 1.0011 42.7461 0.879905C42.6682 0.756349 42.592 0.635289 42.6098 0.477247C42.6145 0.436697 42.4992 0.343838 42.4362 0.341369C42.3228 0.336846 42.2227 0.295629 42.1214 0.253934C42.0083 0.207414 41.8938 0.160298 41.758 0.162877C41.2257 0.174015 40.6933 0.145349 40.1652 0.077121C39.8849 0.0401177 39.6145 0.0804832 39.3461 0.120567C39.2252 0.13862 39.1047 0.156615 38.9838 0.16746ZM7.48623 44.1803C7.49029 44.1317 7.49615 44.0836 7.5019 44.0364C7.53349 43.7773 7.56186 43.5446 7.27118 43.399C7.62694 43.1604 7.8712 43.1433 8.12831 43.4205C8.19369 43.4911 8.26583 43.5536 8.33833 43.6164C8.46258 43.724 8.58788 43.8326 8.68205 43.9841C8.75757 44.1055 8.89264 44.1872 9.02986 44.2703C9.13031 44.3311 9.23191 44.3926 9.31217 44.4709C9.41324 44.5693 9.4843 44.6983 9.55535 44.8272C9.58704 44.8847 9.61873 44.9422 9.65308 44.997L9.44217 45.1884L9.25317 44.8905L9.17773 44.9182L9.22268 45.3566C9.20483 45.367 9.1796 45.3775 9.15116 45.3893L9.15102 45.3894L9.15096 45.3894C9.0755 45.4208 8.97743 45.4616 8.9338 45.5347C8.57367 46.1391 8.00768 46.5062 7.42825 46.8534C7.31553 46.921 7.18555 46.959 7.05503 46.9971C6.96528 47.0233 6.87529 47.0496 6.79048 47.0857L6.70785 47.1209C6.26362 47.3106 6.15415 47.3573 5.72785 47.2629C5.40159 47.1907 5.05399 47.1114 4.7995 46.8395C4.7017 46.7209 4.56725 46.6376 4.417 46.6026C4.07566 46.5704 4.03116 46.3805 4.06406 46.1068C4.07254 46.0286 4.06836 45.9496 4.05169 45.8727C3.94837 45.3863 3.96444 45.3376 4.34728 45.119C4.81921 44.8494 5.33837 44.7109 5.85658 44.5727L5.85732 44.5725C5.96135 44.5448 6.06534 44.517 6.1689 44.4883C6.47275 44.4036 6.78131 44.3361 7.08585 44.2695C7.22034 44.24 7.35405 44.2108 7.48623 44.1803ZM14.7461 36.6413C14.7142 36.6916 14.6821 36.7421 14.6496 36.7924C14.8577 36.8737 15.0216 37.0233 14.8918 37.1835C14.7055 37.4119 14.8708 37.4594 15.0077 37.4962C15.0344 37.5033 15.0624 37.5084 15.0903 37.5133L15.0904 37.5133L15.0904 37.5134C15.1867 37.5306 15.2811 37.5474 15.3081 37.6497C15.3503 37.8092 15.4673 37.8928 15.5828 37.9752C15.6326 38.0107 15.682 38.046 15.7251 38.087C15.841 38.1975 16.0416 38.311 16.1801 38.2866C16.415 38.2342 16.6352 38.1309 16.8252 37.9841C16.9396 37.9011 17.0352 37.7931 17.1309 37.6849C17.194 37.6136 17.2571 37.5423 17.3258 37.4778C17.4128 37.3961 17.5029 37.3174 17.5931 37.2386L17.5931 37.2386L17.5931 37.2386L17.5932 37.2385L17.5932 37.2385L17.5932 37.2385L17.5932 37.2385L17.5933 37.2384L17.5933 37.2384L17.5933 37.2384L17.5933 37.2384L17.5934 37.2384L17.5936 37.2382L17.5936 37.2382C17.8499 37.0143 18.1063 36.7903 18.2906 36.498C18.3714 36.3696 18.4677 36.251 18.5641 36.1324L18.5641 36.1324C18.745 35.9096 18.9259 35.6869 19.004 35.3996C19.0603 35.1127 19.2093 34.852 19.4283 34.6571C19.6799 34.4468 19.6526 34.2738 19.4543 33.9554C19.4305 33.9171 19.407 33.87 19.3834 33.8225C19.3278 33.7109 19.2712 33.5974 19.2071 33.5926C19.0407 33.5798 19.0444 33.4828 19.048 33.3861C19.0513 33.2972 19.0546 33.2086 18.9254 33.1861C18.2942 33.4225 17.7408 33.8468 17.1904 34.2689L17.1727 34.2825L17.0647 34.3652L17.0015 34.4135C16.6092 34.7121 16.2454 35.0475 15.8814 35.383L15.8814 35.383L15.8814 35.383L15.8814 35.383L15.8813 35.3831L15.8813 35.3831L15.8813 35.3831L15.8813 35.3831L15.8813 35.3832L15.8812 35.3832L15.8812 35.3832L15.8812 35.3832L15.8812 35.3832L15.8811 35.3833L15.8811 35.3833C15.7038 35.5467 15.5265 35.7102 15.3459 35.8694C15.0955 36.0902 14.9222 36.3635 14.7461 36.6413ZM16.8471 61.553C17.1693 60.8821 17.7118 60.611 18.2424 60.3459L18.2628 60.3357C18.7351 60.0967 19.2238 59.8913 19.7254 59.721C19.8343 59.6846 19.9425 59.6414 20.0513 59.5979C20.4417 59.4417 20.8403 59.2823 21.3156 59.4267C21.1415 59.648 20.8975 59.7346 20.6446 59.8244C20.4144 59.9062 20.1768 59.9906 19.9779 60.1816C20.333 60.1573 20.6471 60.0523 20.9735 59.9433L20.9736 59.9432C21.2241 59.8595 21.4819 59.7734 21.771 59.7194L21.5278 60.1078L21.8553 60.1847L21.9341 60.7705C21.9072 60.7852 21.8766 60.8012 21.8437 60.8184L21.8432 60.8187L21.8428 60.8189L21.8425 60.819C21.76 60.8621 21.6627 60.9129 21.5703 60.9711C21.0683 61.2871 21.0664 61.2918 20.8137 61.8918L20.8075 61.9067C20.7755 61.9753 20.736 62.0401 20.6898 62.1001C20.3542 62.5689 19.9817 62.9921 19.43 63.2299C19.1822 63.3418 18.9148 63.4046 18.6428 63.4149C18.5855 63.4197 18.5315 63.4432 18.4891 63.4818C18.4528 63.5192 18.3992 63.5348 18.3482 63.5228C18.2973 63.5108 18.2564 63.473 18.2407 63.4234C18.1629 63.267 18.0366 63.1557 17.9105 63.0446C17.8085 62.9547 17.7067 62.865 17.6307 62.7517C17.5575 62.6577 17.4468 62.5999 17.3274 62.5931C17.1532 62.5576 16.9447 62.2028 16.9902 62.0454C16.9997 62.013 17.0267 61.9853 17.0538 61.9576C17.1078 61.9023 17.1621 61.8468 17.0774 61.7524C17.005 61.6811 16.9281 61.6145 16.8471 61.553ZM32.2025 42.2058L32.244 42.5815C32.3734 42.6674 32.5077 42.6421 32.6427 42.6166C32.7648 42.5936 32.8876 42.5704 33.008 42.6293C33.0742 42.6414 33.14 42.6066 33.1669 42.5454C33.1937 42.4841 33.1746 42.4125 33.1206 42.3725C33.1039 42.354 33.1259 42.3009 33.1479 42.2478C33.1581 42.2233 33.1682 42.1989 33.1745 42.1779C33.1916 42.1839 33.2134 42.1901 33.2353 42.1962L33.2353 42.1962C33.2821 42.2093 33.3289 42.2225 33.3287 42.2349C33.3238 42.56 33.6009 42.4785 33.7191 42.4407C33.8181 42.4091 33.9181 42.379 34.0182 42.349C34.4266 42.2263 34.8371 42.1029 35.1976 41.8693L35.2025 41.8661C35.3896 41.7447 35.628 41.5902 35.4097 41.295C35.3989 41.2796 35.412 41.2338 35.4279 41.2122C35.6023 40.9746 35.5152 40.8178 35.2762 40.7017C35.0676 40.6003 35.1704 40.5097 35.2509 40.4387L35.2647 40.4264L35.0158 40.0765L34.4843 40.1853C34.5258 40.1218 34.5862 40.0832 34.6454 40.0454C34.7465 39.9808 34.8441 39.9184 34.8374 39.7376L34.7732 39.6957L34.7726 39.6953L34.7712 39.6944C34.7084 39.6535 34.6385 39.6079 34.5692 39.5615C34.5355 39.5388 34.4943 39.5173 34.4531 39.4957C34.3617 39.4481 34.2703 39.4004 34.2605 39.3393C34.22 39.0866 34.0819 39.1373 33.9571 39.1831L33.9377 39.1902C33.9281 39.1936 33.9186 39.197 33.9093 39.2C33.7303 39.2588 33.5542 39.326 33.378 39.3933L33.3779 39.3933L33.3778 39.3934C33.2539 39.4407 33.1299 39.488 33.005 39.5324C32.9278 39.5517 32.8488 39.5632 32.7692 39.5666L32.7427 39.466L34.0514 38.9588C33.6811 38.8495 33.4206 38.9462 33.1375 39.0549C32.6906 39.2282 32.268 39.4581 31.8803 39.739C31.3882 40.0932 30.9721 40.5275 31.0619 41.2189C31.0646 41.2754 31.0619 41.3321 31.054 41.3881L31.9123 42.3405L32.2025 42.2058ZM45.4671 41.0942L45.1993 41.3324L45.3737 41.3623L45.6695 41.4131C45.6811 41.4885 45.6939 41.5647 45.7067 41.6414C45.7372 41.8232 45.7683 42.0084 45.7856 42.1949C45.8003 42.357 45.7907 42.5203 45.7572 42.6796C45.7465 42.7301 45.7012 42.7403 45.6498 42.7519C45.579 42.7679 45.4968 42.7864 45.4781 42.9163C45.461 43.0363 45.2829 43.1243 45.1205 43.2044L45.1204 43.2045C45.0868 43.2211 45.0539 43.2373 45.0232 43.2535C44.9764 43.2781 44.9139 43.28 44.8506 43.2819C44.7171 43.286 44.5803 43.2902 44.5808 43.5077L43.9809 43.5079C43.9675 43.508 43.9541 43.5095 43.9407 43.5111L43.9228 43.513L42.9604 44.3696C42.9619 44.4693 42.9554 44.5689 42.941 44.6675C42.9083 44.8175 42.7483 44.9724 42.6589 44.8895C42.5525 44.7909 42.4567 44.8318 42.3658 44.8707C42.2869 44.9044 42.2116 44.9366 42.136 44.8749C42.0196 44.3951 42.0122 44.2456 42.1008 43.8655L41.4644 44.1163C41.4478 44.0971 41.4238 44.0757 41.3984 44.0532C41.3382 43.9997 41.2702 43.9393 41.2737 43.8833C41.2804 43.7765 41.2812 43.668 41.282 43.5595C41.2848 43.1576 41.2877 42.7534 41.5898 42.4162C41.6811 42.2896 41.7859 42.1733 41.9025 42.0693C42.1449 41.8979 42.3996 41.7436 42.6541 41.5895L42.7835 41.5111C42.8683 41.4595 42.9561 41.4129 43.0439 41.3663L43.044 41.3663L43.044 41.3662L43.0441 41.3662L43.0441 41.3662L43.0441 41.3662L43.0442 41.3662L43.0442 41.3661L43.0443 41.3661L43.0443 41.3661L43.0443 41.3661L43.0444 41.3661L43.0445 41.366C43.1084 41.3321 43.1723 41.2982 43.2351 41.2624C43.3226 41.2125 43.4225 41.1902 43.5225 41.1678L43.5225 41.1678C43.6869 41.1311 43.8511 41.0944 43.9596 40.9355C44.1648 40.9775 44.3379 40.9052 44.5147 40.8312C44.5689 40.8086 44.6235 40.7857 44.6795 40.766C44.8273 40.7018 44.9951 40.7005 45.1439 40.7625C45.2927 40.8245 45.4095 40.9444 45.4671 41.0942ZM55.5746 23.3276L55.6056 22.7643C55.6664 22.3983 55.6419 22.0234 55.5337 21.6682C55.4883 21.5163 55.4031 21.3807 55.3172 21.2441C55.2299 21.1052 55.1419 20.9653 55.0944 20.806C55.0837 20.77 54.9972 20.7353 54.9466 20.7362C54.7904 20.7375 54.6345 20.7499 54.48 20.7732C54.192 20.8191 53.9581 20.9722 53.7235 21.1258L53.7235 21.1258L53.7235 21.1258C53.653 21.1719 53.5824 21.2181 53.5103 21.2615C52.895 21.6316 52.4236 22.0886 52.396 22.8596C52.3976 22.9174 52.3779 22.9737 52.3406 23.0179C52.1732 23.1568 52.239 23.2799 52.3045 23.4025C52.3404 23.4695 52.3761 23.5364 52.3736 23.6056C52.6249 23.7838 52.7442 24.0538 52.8606 24.3171C52.9018 24.4105 52.9427 24.503 52.9889 24.5903C53.1463 24.8872 53.3242 24.979 53.5816 24.9319C53.6327 24.9226 53.6843 24.9139 53.736 24.9051L53.736 24.9051L53.7361 24.9051C54.1411 24.8364 54.5544 24.7663 54.835 24.4011C54.8727 24.3523 54.9243 24.3136 54.9759 24.2748C55.0841 24.1936 55.1928 24.112 55.1765 23.9359C55.1835 23.8829 55.2176 23.8372 55.2667 23.8153C55.5561 23.7859 55.564 23.588 55.5718 23.389C55.5726 23.3685 55.5735 23.3479 55.5746 23.3276ZM25.8783 20.1451L25.4157 20.4028C25.4977 20.4184 25.5587 20.4302 25.607 20.4395C25.684 20.4544 25.7284 20.463 25.7733 20.4705L25.7741 20.4706L25.7741 20.4706C25.8847 20.489 25.9445 20.499 25.9783 20.534C26.018 20.5752 26.0215 20.6512 26.0293 20.8167L26.0293 20.8168L26.0293 20.8176C26.0295 20.8225 26.0296 20.8278 26.0296 20.8333L26.0294 20.8499C26.0288 20.8831 26.0282 20.9184 26.0437 20.9295C26.2398 21.0561 26.3174 21.3035 26.2285 21.5183C26.1511 21.7711 26.0241 22.0062 25.8549 22.21C25.1722 22.9308 24.2883 23.328 23.3575 23.6231C23.2488 23.6577 23.1233 23.6397 22.9986 23.6219C22.9413 23.6136 22.8841 23.6055 22.8288 23.6024L22.8676 23.3709C22.6466 23.374 22.4863 23.3156 22.4482 23.0569C22.4195 22.9615 22.3453 22.8864 22.2499 22.8561C22.0931 22.8321 22.0805 22.7292 22.0681 22.6282C22.0597 22.5594 22.0514 22.4915 21.9976 22.4501C22.131 22.3766 22.114 22.2638 22.0968 22.1501C22.0818 22.0511 22.0668 21.9515 22.1512 21.8769C22.2123 21.8231 22.2691 21.7617 22.3258 21.7006C22.4308 21.5871 22.5353 21.4743 22.6652 21.4115C23.1017 21.1871 23.5613 21.0101 24.0362 20.8838C24.2485 20.8485 24.4373 20.7294 24.5597 20.5534C24.736 20.2697 24.9981 20.0488 25.3085 19.9223L25.3191 19.9181C25.579 19.8161 25.5809 19.8154 25.8783 20.1451ZM32.6106 31.9918C32.5378 31.9765 32.4633 31.9707 32.3889 31.9746C32.2194 32.0806 32.0689 32.1999 31.9215 32.3168L31.9214 32.3169L31.9213 32.317L31.9213 32.317L31.9205 32.3176C31.8507 32.373 31.7815 32.4278 31.7113 32.4804C31.2733 32.8064 30.824 33.1423 30.5716 33.6768C30.4032 34.0338 30.4286 34.3745 30.6743 34.5798C30.7447 34.6386 30.7936 34.7201 30.8423 34.8013C30.9295 34.9465 31.0159 35.0905 31.223 35.1011C31.2523 35.4374 31.5331 35.3959 31.7117 35.354C32.2111 35.237 32.7168 35.1055 33.1295 34.7767C33.2054 34.7163 33.2689 34.6407 33.3325 34.5652L33.3325 34.5651L33.3326 34.5651L33.3326 34.5651L33.3326 34.5651L33.3326 34.5651L33.3327 34.565L33.3327 34.565L33.3327 34.565C33.3916 34.495 33.4505 34.425 33.5193 34.3668C33.633 34.2706 33.758 34.1877 33.8929 34.0982L33.8931 34.0981L33.8932 34.098L33.8933 34.0979L33.8934 34.0978C33.9547 34.0572 34.0181 34.0152 34.0833 33.97L33.9585 33.0636L33.8094 33.0308L33.808 33.0305L33.805 33.0298C33.7298 33.0132 33.6534 32.9963 33.561 32.9762L34.1549 32.3288C34.1129 32.2795 34.0638 32.2321 34.0176 32.1874C33.9235 32.0965 33.8411 32.0169 33.853 31.9551C33.8721 31.8547 33.8482 31.7693 33.8244 31.6839C33.801 31.6001 33.7776 31.5162 33.7947 31.4183C33.7206 31.4677 33.7033 31.5538 33.6866 31.6368C33.6607 31.7653 33.6363 31.8865 33.4044 31.8524L33.5433 31.5743C33.2585 31.4623 33.1348 31.646 33.0062 31.8368C32.9936 31.8555 32.9809 31.8744 32.968 31.893L33.0738 31.8685L33.2537 31.8274L33.321 31.812C33.3099 31.8762 33.2878 31.938 33.2559 31.9949C33.2046 32.0546 33.1387 32.1003 33.0646 32.1276C33.0443 32.1338 33.0185 32.1164 32.991 32.0978C32.9659 32.0809 32.9395 32.0631 32.9149 32.0617C32.8872 32.0605 32.858 32.0731 32.8294 32.0855C32.7978 32.0992 32.7669 32.1126 32.7393 32.1068C32.7145 32.1016 32.6944 32.0758 32.6741 32.0498C32.6546 32.0247 32.6349 31.9993 32.6106 31.9918ZM23.8728 41.5914L23.7525 41.888C24.031 41.9155 24.2098 41.7754 24.3911 41.6334C24.5452 41.5127 24.701 41.3906 24.9214 41.3687C24.8866 41.4573 24.842 41.5416 24.7884 41.6203C24.6844 41.7247 24.5751 41.8238 24.4609 41.917C24.6476 41.9151 24.8276 41.8473 24.9686 41.7256L24.9686 41.7257C25.1776 41.9176 25.2694 42.0019 25.3063 42.1058C25.3351 42.1871 25.3303 42.2804 25.3216 42.4468C25.2465 42.5061 25.1646 42.5621 25.0821 42.6186C24.8924 42.7485 24.699 42.881 24.5745 43.0607C24.4544 43.2339 24.291 43.3276 24.1288 43.4206C24.0245 43.4804 23.9207 43.54 23.8291 43.6203C23.5864 43.8059 23.317 43.9544 23.03 44.0607C22.8754 44.1383 22.7012 44.1689 22.5291 44.1486C22.3334 44.1065 22.0478 44.0069 21.9993 43.8651C21.9436 43.7022 21.8464 43.6735 21.7468 43.644C21.7035 43.6312 21.6597 43.6182 21.6187 43.5941C21.4334 43.4852 21.2553 43.3403 21.228 43.091C21.2222 43.0381 21.2051 42.9811 21.1883 42.9248C21.1589 42.8262 21.1302 42.7302 21.1645 42.6645C21.2882 42.4049 21.4611 42.1714 21.6737 41.9769C22.0844 41.643 22.5164 41.3358 22.9669 41.0571C23.0411 41.0099 23.1484 41.0142 23.2747 41.0192C23.3388 41.0217 23.4079 41.0245 23.48 41.0207L23.2812 41.2401C23.491 41.2214 23.6022 41.338 23.7071 41.4481C23.76 41.5036 23.8113 41.5574 23.8728 41.5914ZM1.72947 36.8271L1.53193 37.1427C1.7403 37.1203 1.94689 37.0839 2.15028 37.0338C2.23328 37.0062 2.35378 36.8988 2.34904 36.8358C2.33863 36.6975 2.41981 36.6186 2.49546 36.545C2.54435 36.4975 2.59092 36.4522 2.60897 36.3946C2.65397 36.2487 2.74998 36.17 2.84539 36.0919C2.8827 36.0613 2.91991 36.0308 2.95395 35.9964C3.02296 35.9267 3.10303 35.8644 3.18266 35.8024L3.18269 35.8024C3.31762 35.6973 3.45128 35.5932 3.52771 35.4561C3.60385 35.3194 3.70961 35.2237 3.81406 35.1292C3.88157 35.0681 3.94852 35.0076 4.00658 34.9367C4.10897 34.8118 4.20903 34.685 4.30884 34.5586L4.30904 34.5583L4.30923 34.5581L4.35826 34.496L4.44197 34.3903L4.47838 33.7295C4.25212 33.7827 4.25831 33.6669 4.26454 33.55C4.26942 33.4587 4.27433 33.3667 4.16818 33.3545C4.08449 33.3428 4.02577 33.4019 3.96648 33.4617C3.88392 33.5448 3.80024 33.6291 3.64651 33.5249C3.67635 33.4939 3.70961 33.4645 3.74261 33.4354C3.87337 33.3199 4.00004 33.2081 3.89381 33.0124C3.53821 33.0097 3.30865 33.225 3.07891 33.4404L3.04583 33.4714C3.00368 33.5157 2.95765 33.5562 2.90828 33.5924C2.34018 33.9529 1.79988 34.3549 1.29188 34.7952C1.23287 34.8469 1.1615 34.8844 1.09004 34.922C1.02377 34.9568 0.95742 34.9917 0.900763 35.038L0.877289 35.0572C0.668562 35.2274 0.452631 35.4035 0.479408 35.7196C0.609401 35.743 0.712971 35.6828 0.814549 35.6238C0.9371 35.5526 1.05675 35.483 1.21641 35.5642L0.560676 36.1477L0.731776 36.4816L1.41634 36.2323C1.21444 36.6271 1.23854 36.662 1.72947 36.8271ZM42.8261 35.2127C42.8173 35.2843 42.8234 35.3491 42.8292 35.4107C42.8404 35.5291 42.8505 35.6359 42.7518 35.757L42.6803 35.5069C42.6138 35.5224 42.5473 35.5386 42.4808 35.5548L42.48 35.555L42.4792 35.5552L42.4784 35.5554L42.4776 35.5556L42.4767 35.5558L42.4766 35.5558L42.4765 35.5558C42.2944 35.6001 42.1122 35.6444 41.9285 35.6771C41.8637 35.6888 41.7394 35.6485 41.723 35.603C41.67 35.4562 41.5586 35.3651 41.4483 35.2748L41.4483 35.2748C41.3702 35.2109 41.2928 35.1476 41.237 35.0653C41.1829 34.9649 41.1553 34.8526 41.1568 34.7388C41.1552 34.7109 41.1765 34.6818 41.1978 34.6528C41.2189 34.6239 41.2399 34.595 41.2385 34.5675C41.2194 34.4935 41.1869 34.4237 41.1425 34.3613L41.1697 34.3553C41.5214 34.2774 41.5396 34.2734 41.6997 33.8789C41.7606 33.7286 41.879 33.657 41.999 33.5845C42.0722 33.5403 42.1461 33.4957 42.2079 33.4326L41.9584 33.2989C41.9805 33.2802 42.0023 33.257 42.0236 33.2343C42.068 33.187 42.1104 33.1419 42.1499 33.1442C42.8811 33.1878 42.8977 33.1881 43.3542 32.8803C43.1616 32.7564 43.0084 32.833 42.8463 32.9142C42.7389 32.968 42.6276 33.0238 42.4982 33.0244C42.5043 32.9957 42.5081 32.9622 42.5118 32.9297C42.5194 32.8623 42.5266 32.7988 42.5529 32.7898C42.6106 32.7698 42.6678 32.7481 42.725 32.7263L42.7251 32.7263L42.7251 32.7263L42.7251 32.7263L42.7252 32.7263C43.0549 32.6011 43.3817 32.4769 43.7601 32.7056C43.7775 32.7162 43.7939 32.7257 43.8093 32.7345C43.9155 32.7961 43.971 32.8282 43.9653 32.9767C43.9724 33.0898 44.0089 33.1992 44.0712 33.2942C44.1705 33.471 44.2769 33.6438 44.3882 33.8246L44.3883 33.8248L44.3884 33.825L44.3885 33.8251L44.3887 33.8255C44.4347 33.9002 44.4815 33.9763 44.5291 34.0546L44.3724 34.1465C44.3074 34.2293 44.3363 34.3188 44.3611 34.3955C44.395 34.5005 44.4212 34.5814 44.1883 34.5883C44.1441 34.5896 44.1553 34.6303 44.1686 34.6788C44.1898 34.7562 44.2166 34.8535 44.0334 34.8434C43.9534 34.839 43.8678 34.9358 43.7855 35.0289C43.749 35.0701 43.7132 35.1106 43.6787 35.1413L43.5214 35.0711L43.398 35.016L43.33 35.1025L43.6513 35.2937L43.2012 35.525C43.0854 35.4289 42.9557 35.3208 42.8261 35.2127ZM26.1145 13.3432L25.6173 13.6924C25.6617 13.7667 25.7144 13.8357 25.7745 13.8982C25.8405 13.9345 25.9086 13.9668 25.9784 13.9952L25.9888 14.0008C26.0503 14.0338 26.1483 14.0863 26.143 14.1038C26.1011 14.2422 26.1809 14.3431 26.2604 14.4438C26.3456 14.5517 26.4306 14.6593 26.3653 14.8124C26.4111 14.8364 26.4583 14.858 26.5065 14.8771C26.5704 14.759 26.6573 14.7867 26.7432 14.814C26.7883 14.8284 26.8332 14.8427 26.8744 14.8357C27.0516 14.8057 27.1965 14.7203 27.3398 14.636C27.4411 14.5763 27.5416 14.5172 27.6521 14.4784C28.1311 14.3136 28.5654 14.0413 28.9213 13.6826L28.8137 12.4256L28.216 12.3926C28.2554 12.2992 28.3346 12.2371 28.4114 12.1769C28.5216 12.0904 28.6269 12.0078 28.6024 11.8421C28.2689 11.7503 27.9422 11.7434 27.6723 11.9143C27.449 12.0558 27.2155 12.1781 26.9822 12.3002C26.7573 12.418 26.5326 12.5357 26.3175 12.6703C26.1049 12.789 25.9278 12.9617 25.8043 13.1706L26.1145 13.3432ZM17.4471 26.7979L16.8719 27.0085L17.1646 27.1376C17.161 27.1427 17.1576 27.1485 17.1543 27.1545C17.1521 27.1584 17.15 27.1625 17.1479 27.1665L17.1478 27.1665C17.1363 27.1881 17.125 27.2095 17.1099 27.2127C16.9001 27.2541 16.7048 27.3489 16.543 27.4878C16.4362 27.5696 16.3186 27.6365 16.1934 27.6864C15.978 27.7688 15.8181 27.9526 15.7672 28.1764L15.9623 28.2855L15.692 28.6063C15.6748 28.6054 15.6599 28.6049 15.6469 28.6048L15.6206 28.6046C15.5935 28.6045 15.5799 28.6045 15.5766 28.5987C15.5243 28.5084 15.4747 28.4166 15.4276 28.3295L15.3905 28.2609L14.838 28.3279L15.0706 27.9125L14.5854 27.639L14.5678 27.3418L14.295 27.3268C14.0808 27.0076 14.1257 26.7584 14.3842 26.506C14.491 26.4018 14.5922 26.2919 14.6948 26.1804C14.8627 25.9981 15.0343 25.8117 15.2405 25.6392L15.4696 26.0285C15.7249 25.9712 15.965 25.8608 16.1742 25.7046C16.3317 25.5916 16.5183 25.5187 16.7018 25.447C16.7814 25.4159 16.8605 25.385 16.9363 25.3512C17.1039 25.5022 17.0315 25.6164 16.9551 25.7368C16.9348 25.7687 16.9144 25.801 16.898 25.8345C16.9178 25.8378 16.9379 25.8434 16.9576 25.8489C16.9991 25.8604 17.0387 25.8715 17.0695 25.8599C17.3534 25.7529 17.4871 25.8132 17.4849 26.0732C17.4833 26.2425 17.472 26.4116 17.4609 26.5783C17.456 26.6521 17.4511 26.7253 17.4471 26.7979ZM15.5286 9.56428L15.9763 9.29804C15.9681 9.28426 15.9601 9.27058 15.9523 9.25709C15.8853 9.14137 15.8263 9.03953 15.6476 9.01237C15.2411 8.95033 14.8875 9.0922 14.535 9.2336C14.4443 9.26999 14.3536 9.30635 14.2622 9.33919C14.0788 9.40504 14.0034 9.70737 14.0434 9.95265C14.0571 10.051 14.058 10.1507 14.0463 10.2492C14.0074 10.4954 14.1709 10.7283 14.4168 10.7771C14.5892 10.8248 14.7036 10.8736 14.7454 11.0578C14.7707 11.2225 14.9233 11.3374 15.0897 11.3171C15.1066 11.3168 15.1237 11.3163 15.1408 11.3158C15.2801 11.3116 15.4235 11.3072 15.5288 11.4543C15.5991 11.4966 15.6863 11.5007 15.7604 11.4651C15.7941 11.4441 15.8165 11.3965 15.8375 11.3518C15.8597 11.3047 15.8803 11.2609 15.9109 11.2555C15.9491 11.2487 15.9917 11.2777 16.0359 11.3078C16.0764 11.3354 16.1183 11.364 16.1595 11.3666C16.4471 11.3852 16.6097 11.1807 16.7086 10.9614C16.7352 10.9027 16.7405 10.8363 16.7459 10.7683C16.754 10.6656 16.7624 10.5593 16.8448 10.4702C16.8524 10.4621 16.8083 10.4092 16.7565 10.347C16.7152 10.2974 16.669 10.2418 16.6399 10.1982C16.6144 10.1431 16.5964 10.0849 16.5862 10.0251L16.0846 9.99744L16.3908 9.87131L16.4103 9.51644C16.3418 9.52794 16.2755 9.5394 16.2108 9.55058L16.2108 9.55059L16.2105 9.55063C16.0363 9.58074 15.874 9.6088 15.7108 9.63019C15.6807 9.63416 15.6481 9.61855 15.606 9.59842C15.5833 9.58756 15.5578 9.57539 15.5286 9.56428ZM25.9438 29.4744L25.7672 29.9711C25.9604 30.0645 26.149 30.0993 26.3354 29.935C26.4444 30.0681 26.3824 30.1666 26.3181 30.2687C26.2739 30.3389 26.2286 30.4109 26.237 30.497L26.5622 30.5757C26.6463 30.6632 26.6036 30.7398 26.5586 30.8205C26.5141 30.9003 26.4674 30.9842 26.5385 31.0867C26.6267 31.2143 26.5372 31.2768 26.4415 31.3436C26.3785 31.3876 26.3128 31.4335 26.2935 31.5011C26.2457 31.6034 26.1679 31.6889 26.0703 31.7463C25.9466 31.8357 25.8043 31.89 25.6613 31.9447C25.4626 32.0206 25.2625 32.097 25.1091 32.2685C25.067 32.3156 24.9637 32.3088 24.8459 32.301C24.787 32.2971 24.7245 32.293 24.6641 32.2952C24.7605 32.1245 24.6641 32.0279 24.5672 31.9309C24.4751 31.8387 24.3827 31.7461 24.4545 31.5891C24.4065 31.5558 24.3453 31.5398 24.2828 31.5234C24.1379 31.4853 23.986 31.4455 23.9752 31.1851L24.3079 31.0151L24.0063 30.851C23.9701 30.6499 24.1374 30.5633 24.2557 30.5021L24.2719 30.4936C24.6567 30.2952 24.9841 30.0026 25.2233 29.6434C25.3767 29.4173 25.6126 29.3019 25.9438 29.4744ZM41.8513 26.5962L42.4194 27.4043C42.4816 27.3936 42.5506 27.3878 42.6221 27.3817C42.789 27.3677 42.9699 27.3524 43.1117 27.2707C43.4781 27.069 43.8106 26.812 44.0975 26.5089C44.4188 26.1521 44.6909 25.7247 44.2759 25.232C44.2493 25.2004 44.2433 25.1518 44.2365 25.0968C44.2329 25.0682 44.2292 25.0379 44.2222 25.0075C44.1667 25.0152 44.1111 25.0176 44.0581 25.0198C43.9499 25.0244 43.8527 25.0285 43.7896 25.0768C43.7472 25.1093 43.7054 25.1425 43.6636 25.1757C43.4151 25.3733 43.1701 25.568 42.8225 25.5753C42.6625 25.7509 42.4519 25.8339 42.2428 25.9163C42.1174 25.9657 41.9925 26.0149 41.8796 26.0837L41.8513 26.5962Z" fill="#171B1B"/>
</svg>
